<?xml version="1.0" encoding="UTF-8"?><svg id="Capa_1" xmlns="http://www.w3.org/2000/svg" viewBox="34 35 339 72"><defs><style>.cls-1{fill:#4141e2;stroke-width:0px;}</style></defs><path class="cls-1" d="M81.91,86.74c-4.74,5.33-10.23,7.92-16.77,7.92-12.14,0-22.02-10.71-22.02-23.88,0-12.33,10.3-22.75,22.5-22.75,6.58,0,11.96,2.67,16.93,8.4h9.88c-5.62-10.06-15.6-15.82-27.46-15.82-16.54,0-30.01,13.89-30.01,30.97s13.98,30.49,29.92,30.49c11.74,0,21.11-5.3,27.12-15.34h-10.11Z"/><path class="cls-1" d="M169.53,62.66c7.7,0,11.44,4.64,11.44,14.18v24.11h7.82v-26.53c0-11.45-7.21-18.86-18.37-18.86-5.52,0-9.85,1.97-12.86,5.87l-.09.11h-.59v-4.77h-7.26v44.18h7.82v-24.19c0-8.7,4.63-14.1,12.08-14.1Z"/><polygon class="cls-1" points="216.78 56.77 209.43 56.77 209.43 41.74 201.61 41.74 201.61 56.77 195.55 56.77 195.55 63.87 201.61 63.87 201.61 100.95 209.43 100.95 209.43 63.87 216.78 63.87 216.78 56.77"/><path class="cls-1" d="M119.81,55.53c-12.84,0-23.29,10.45-23.29,23.29s10.45,23.29,23.29,23.29,23.29-10.45,23.29-23.29-10.45-23.29-23.29-23.29ZM119.81,94.53c-8.66,0-15.71-7.05-15.71-15.71s7.05-15.71,15.71-15.71,15.71,7.05,15.71,15.71-7.05,15.71-15.71,15.71Z"/><polygon class="cls-1" points="246.33 56.77 225 56.77 225 100.95 232.83 100.95 232.81 63.87 246.33 63.87 246.33 56.77"/><rect class="cls-1" x="302.34" y="41.74" width="7.83" height="59.2"/><path class="cls-1" d="M270.42,55.53c-12.84,0-23.29,10.45-23.29,23.29s10.45,23.29,23.29,23.29,23.29-10.45,23.29-23.29-10.45-23.29-23.29-23.29ZM270.42,94.53c-8.66,0-15.71-7.05-15.71-15.71s7.05-15.71,15.71-15.71,15.71,7.05,15.71,15.71-7.05,15.71-15.71,15.71Z"/><path class="cls-1" d="M364.83,100.95v-21.51s-.02-.29-.02-.29v-.15c0-.06,0-.12,0-.18,0-8.79-5.07-16.96-12.94-20.87l-4.25,6.35c5.88,2.48,9.66,8.13,9.66,14.52,0,8.69-7.07,15.76-15.76,15.76s-15.76-7.07-15.76-15.76c0-6.43,3.99-12.26,9.97-14.64l-4.26-6.37c-8.05,3.86-13.24,12.08-13.24,21.01,0,12.84,10.45,23.29,23.29,23.29,5.65,0,11.11-2.06,15.36-5.79l.48-.42v5.04h7.47Z"/><path class="cls-1" d="M334.06,52.02c2.44-.63,4.95-.96,7.47-.96s5.25.35,7.8,1.05l3.36-5.03c-7.09-2.36-14.86-2.4-21.99-.1l3.37,5.04Z"/><path class="cls-1" d="M342.03,63.02l4.62-6.92c-3.25-.73-6.62-.76-9.91-.07l4.67,6.99h.62Z"/><path class="cls-1" d="M328.23,43.29c4.28-1.52,8.75-2.3,13.3-2.3s9.24.81,13.61,2.41l3.29-4.92c-5.42-2.18-11.1-3.28-16.9-3.28s-11.27,1.06-16.59,3.16l3.29,4.92Z"/></svg>