<svg xmlns="http://www.w3.org/2000/svg" viewBox="0 0 800 420" font-family="system-ui,-apple-system,sans-serif">
  <!-- Background -->
  <rect width="800" height="420" rx="16" fill="#fff" stroke="#e8edef" stroke-width="1"/>

  <!-- Top bar -->
  <rect width="800" height="44" rx="16" fill="#132342"/>
  <rect y="32" width="800" height="12" fill="#132342"/>
  <rect x="16" y="12" width="20" height="20" rx="4" fill="#4141e2"/>
  <text x="28" y="26" fill="#fff" font-size="9" font-weight="700" text-anchor="middle">C</text>
  <text x="46" y="27" fill="rgba(255,255,255,0.9)" font-size="12" font-weight="600">Controlá Dashboard</text>
  <text x="680" y="27" fill="rgba(255,255,255,0.4)" font-size="10">Hotel Boutique Granada</text>
  <circle cx="770" cy="22" r="12" fill="rgba(65,65,226,0.3)"/>
  <text x="770" y="26" fill="#fff" font-size="8" font-weight="700" text-anchor="middle">TK</text>

  <!-- Title -->
  <text x="30" y="78" fill="#132342" font-size="14" font-weight="700">Estado de habitaciones</text>
  <text x="670" y="78" fill="#64748b" font-size="11">Tiempo real · 14:32</text>

  <!-- Stats row -->
  <rect x="30" y="92" width="170" height="56" rx="10" fill="rgba(65,65,226,0.08)"/>
  <text x="115" y="118" fill="#4141e2" font-size="22" font-weight="800" text-anchor="middle">12</text>
  <text x="115" y="136" fill="#64748b" font-size="10" text-anchor="middle">Ocupadas</text>

  <rect x="215" y="92" width="170" height="56" rx="10" fill="rgba(105,202,144,0.1)"/>
  <text x="300" y="118" fill="#69ca90" font-size="22" font-weight="800" text-anchor="middle">6</text>
  <text x="300" y="136" fill="#64748b" font-size="10" text-anchor="middle">Libres</text>

  <rect x="400" y="92" width="170" height="56" rx="10" fill="rgba(224,94,39,0.08)"/>
  <text x="485" y="118" fill="#e05e27" font-size="22" font-weight="800" text-anchor="middle">3</text>
  <text x="485" y="136" fill="#64748b" font-size="10" text-anchor="middle">En limpieza</text>

  <rect x="585" y="92" width="185" height="56" rx="10" fill="rgba(105,202,144,0.1)"/>
  <text x="677" y="118" fill="#69ca90" font-size="22" font-weight="800" text-anchor="middle">10-15%</text>
  <text x="677" y="136" fill="#64748b" font-size="10" text-anchor="middle">Tiempo ahorrado</text>

  <!-- Room grid header -->
  <text x="30" y="180" fill="#132342" font-size="12" font-weight="600">Planta 1</text>
  <text x="30" y="254" fill="#132342" font-size="12" font-weight="600">Planta 2</text>
  <text x="30" y="328" fill="#132342" font-size="12" font-weight="600">Planta 3</text>

  <!-- Room grid - Floor 1 -->
  <rect x="100" y="164" width="80" height="44" rx="8" fill="rgba(65,65,226,0.1)"/>
  <text x="140" y="183" fill="#132342" font-size="12" font-weight="700" text-anchor="middle">101</text>
  <circle cx="140" cy="198" r="3" fill="#4141e2"/>

  <rect x="192" y="164" width="80" height="44" rx="8" fill="rgba(105,202,144,0.12)"/>
  <text x="232" y="183" fill="#132342" font-size="12" font-weight="700" text-anchor="middle">102</text>
  <circle cx="232" cy="198" r="3" fill="#69ca90"/>

  <rect x="284" y="164" width="80" height="44" rx="8" fill="rgba(65,65,226,0.1)"/>
  <text x="324" y="183" fill="#132342" font-size="12" font-weight="700" text-anchor="middle">103</text>
  <circle cx="324" cy="198" r="3" fill="#4141e2"/>

  <rect x="376" y="164" width="80" height="44" rx="8" fill="rgba(224,94,39,0.1)"/>
  <text x="416" y="183" fill="#132342" font-size="12" font-weight="700" text-anchor="middle">104</text>
  <circle cx="416" cy="198" r="3" fill="#e05e27"/>

  <rect x="468" y="164" width="80" height="44" rx="8" fill="rgba(65,65,226,0.1)"/>
  <text x="508" y="183" fill="#132342" font-size="12" font-weight="700" text-anchor="middle">105</text>
  <circle cx="508" cy="198" r="3" fill="#4141e2"/>

  <rect x="560" y="164" width="80" height="44" rx="8" fill="rgba(105,202,144,0.12)"/>
  <text x="600" y="183" fill="#132342" font-size="12" font-weight="700" text-anchor="middle">106</text>
  <circle cx="600" cy="198" r="3" fill="#69ca90"/>

  <rect x="652" y="164" width="80" height="44" rx="8" fill="rgba(65,65,226,0.1)"/>
  <text x="692" y="183" fill="#132342" font-size="12" font-weight="700" text-anchor="middle">107</text>
  <circle cx="692" cy="198" r="3" fill="#4141e2"/>

  <!-- Room grid - Floor 2 -->
  <rect x="100" y="238" width="80" height="44" rx="8" fill="rgba(105,202,144,0.12)"/>
  <text x="140" y="257" fill="#132342" font-size="12" font-weight="700" text-anchor="middle">201</text>
  <circle cx="140" cy="272" r="3" fill="#69ca90"/>

  <rect x="192" y="238" width="80" height="44" rx="8" fill="rgba(65,65,226,0.1)"/>
  <text x="232" y="257" fill="#132342" font-size="12" font-weight="700" text-anchor="middle">202</text>
  <circle cx="232" cy="272" r="3" fill="#4141e2"/>

  <rect x="284" y="238" width="80" height="44" rx="8" fill="rgba(65,65,226,0.1)"/>
  <text x="324" y="257" fill="#132342" font-size="12" font-weight="700" text-anchor="middle">203</text>
  <circle cx="324" cy="272" r="3" fill="#4141e2"/>

  <rect x="376" y="238" width="80" height="44" rx="8" fill="rgba(105,202,144,0.12)"/>
  <text x="416" y="257" fill="#132342" font-size="12" font-weight="700" text-anchor="middle">204</text>
  <circle cx="416" cy="272" r="3" fill="#69ca90"/>

  <rect x="468" y="238" width="80" height="44" rx="8" fill="rgba(65,65,226,0.1)"/>
  <text x="508" y="257" fill="#132342" font-size="12" font-weight="700" text-anchor="middle">205</text>
  <circle cx="508" cy="272" r="3" fill="#4141e2"/>

  <rect x="560" y="238" width="80" height="44" rx="8" fill="rgba(224,94,39,0.1)"/>
  <text x="600" y="257" fill="#132342" font-size="12" font-weight="700" text-anchor="middle">206</text>
  <circle cx="600" cy="272" r="3" fill="#e05e27"/>

  <rect x="652" y="238" width="80" height="44" rx="8" fill="rgba(105,202,144,0.12)"/>
  <text x="692" y="257" fill="#132342" font-size="12" font-weight="700" text-anchor="middle">207</text>
  <circle cx="692" cy="272" r="3" fill="#69ca90"/>

  <!-- Room grid - Floor 3 -->
  <rect x="100" y="312" width="80" height="44" rx="8" fill="rgba(65,65,226,0.1)"/>
  <text x="140" y="331" fill="#132342" font-size="12" font-weight="700" text-anchor="middle">301</text>
  <circle cx="140" cy="346" r="3" fill="#4141e2"/>

  <rect x="192" y="312" width="80" height="44" rx="8" fill="rgba(224,94,39,0.1)"/>
  <text x="232" y="331" fill="#132342" font-size="12" font-weight="700" text-anchor="middle">302</text>
  <circle cx="232" cy="346" r="3" fill="#e05e27"/>

  <rect x="284" y="312" width="80" height="44" rx="8" fill="rgba(65,65,226,0.1)"/>
  <text x="324" y="331" fill="#132342" font-size="12" font-weight="700" text-anchor="middle">303</text>
  <circle cx="324" cy="346" r="3" fill="#4141e2"/>

  <rect x="376" y="312" width="80" height="44" rx="8" fill="rgba(105,202,144,0.12)"/>
  <text x="416" y="331" fill="#132342" font-size="12" font-weight="700" text-anchor="middle">304</text>
  <circle cx="416" cy="346" r="3" fill="#69ca90"/>

  <rect x="468" y="312" width="80" height="44" rx="8" fill="rgba(65,65,226,0.1)"/>
  <text x="508" y="331" fill="#132342" font-size="12" font-weight="700" text-anchor="middle">305</text>
  <circle cx="508" cy="346" r="3" fill="#4141e2"/>

  <rect x="560" y="312" width="80" height="44" rx="8" fill="rgba(65,65,226,0.1)"/>
  <text x="600" y="331" fill="#132342" font-size="12" font-weight="700" text-anchor="middle">306</text>
  <circle cx="600" cy="346" r="3" fill="#4141e2"/>

  <rect x="652" y="312" width="80" height="44" rx="8" fill="rgba(105,202,144,0.12)"/>
  <text x="692" y="331" fill="#132342" font-size="12" font-weight="700" text-anchor="middle">307</text>
  <circle cx="692" cy="346" r="3" fill="#69ca90"/>

  <!-- Legend -->
  <circle cx="240" cy="395" r="5" fill="#4141e2"/>
  <text x="252" y="399" fill="#64748b" font-size="11">Ocupada</text>
  <circle cx="340" cy="395" r="5" fill="#69ca90"/>
  <text x="352" y="399" fill="#64748b" font-size="11">Libre</text>
  <circle cx="420" cy="395" r="5" fill="#e05e27"/>
  <text x="432" y="399" fill="#64748b" font-size="11">En limpieza</text>
</svg>
